<?xml version="1.0" standalone="no"?>
<!DOCTYPE svg PUBLIC "-//W3C//DTD SVG 20010904//EN"
 "http://www.w3.org/TR/2001/REC-SVG-20010904/DTD/svg10.dtd">
<svg version="1.0" xmlns="http://www.w3.org/2000/svg"
 width="1594.000000pt" height="348.000000pt" viewBox="0 0 1594.000000 348.000000"
 preserveAspectRatio="xMidYMid meet">

<g transform="translate(0.000000,348.000000) scale(0.100000,-0.100000)"
fill="#000000" stroke="none">
<path d="M1526 3437 c-11 -41 -6 -113 9 -133 18 -24 19 -31 3 -31 -33 0 -184
-39 -285 -74 -225 -78 -411 -172 -724 -365 -254 -157 -380 -214 -471 -214
l-43 0 30 -25 c88 -74 292 -145 415 -145 27 0 50 -2 50 -5 0 -2 -14 -28 -31
-57 -42 -71 -74 -145 -101 -231 -33 -107 -32 -274 1 -376 30 -91 105 -206 172
-264 27 -23 49 -45 49 -49 0 -3 -15 -15 -33 -26 -42 -27 -132 -118 -168 -171
-56 -85 -96 -240 -82 -324 l6 -37 28 46 c64 100 219 239 332 295 58 30 194 65
205 54 7 -7 9 -5 -81 -53 -103 -55 -177 -113 -270 -212 -113 -120 -235 -316
-277 -445 -13 -39 -13 -39 25 -72 102 -88 326 -143 468 -115 26 5 47 6 47 1 0
-13 -86 -68 -154 -99 -52 -24 -254 -90 -274 -90 -3 0 3 -9 13 -20 77 -85 331
-41 623 109 50 27 92 44 92 40 0 -17 -149 -113 -255 -165 -60 -30 -161 -70
-223 -90 l-114 -37 34 -21 c26 -17 52 -22 128 -24 86 -3 104 0 185 28 103 36
176 75 255 133 175 131 505 454 589 577 203 295 271 591 169 731 -47 66 -118
93 -253 97 -73 3 -131 -1 -172 -11 -47 -11 -63 -11 -63 -3 0 24 104 85 216
127 l57 22 -68 42 c-102 65 -160 77 -360 79 -149 2 -177 5 -226 24 -100 40
-143 104 -155 234 -15 164 34 297 152 415 83 83 80 84 -63 28 -46 -18 -83 -29
-83 -26 0 13 136 139 184 171 71 48 193 97 288 116 106 21 319 14 423 -14 239
-65 277 -73 370 -79 120 -7 216 8 293 44 101 48 171 142 172 230 0 64 -17 89
-89 132 -175 103 -304 150 -496 181 -213 34 -342 77 -431 145 l-32 24 -6 -22z"/>
<path d="M2506 2689 c-14 -11 -30 -28 -35 -38 -8 -15 -5 -16 25 -13 43 5 70
-16 85 -68 14 -45 -6 -100 -46 -126 -25 -16 -30 -16 -54 -3 -14 8 -34 30 -43
49 l-18 35 0 -30 c0 -83 45 -146 134 -186 61 -28 93 -24 131 14 42 42 58 101
53 197 -7 132 -54 190 -154 190 -37 0 -59 -6 -78 -21z"/>
<path d="M1569 2610 c-40 -7 -149 -54 -149 -64 0 -2 16 0 35 4 70 16 149 -21
179 -84 37 -77 11 -163 -63 -213 -69 -47 -183 -18 -222 57 -23 43 -24 22 -3
-51 21 -72 54 -114 117 -147 49 -25 60 -27 177 -27 106 1 134 4 182 24 78 31
147 79 182 129 69 98 18 205 -144 302 -107 65 -196 86 -291 70z"/>
<path d="M12150 1055 l0 -675 120 0 120 0 0 675 0 675 -120 0 -120 0 0 -675z"/>
<path d="M8364 1369 c-48 -8 -121 -36 -153 -57 -11 -8 1 -28 59 -96 41 -47 74
-86 76 -86 1 0 18 7 37 15 44 18 144 20 201 3 64 -19 141 -101 162 -173 21
-75 15 -186 -13 -244 l-20 -41 130 -155 c71 -85 133 -155 138 -155 5 0 9 218
9 490 l0 490 -120 0 -120 0 0 -56 0 -56 -37 30 c-100 78 -229 112 -349 91z"/>
<path d="M9709 1370 c-62 -11 -124 -39 -182 -83 -26 -21 -49 -37 -52 -37 -3 0
-5 25 -5 55 l0 55 -115 0 -115 0 0 -490 0 -490 114 0 113 0 6 288 c6 310 12
352 62 418 41 53 96 77 168 72 54 -4 63 -8 97 -45 55 -58 60 -97 60 -438 l0
-295 120 0 120 0 0 248 c0 356 15 425 103 496 36 28 45 31 114 31 73 0 75 -1
108 -37 54 -58 57 -83 62 -425 l5 -313 119 0 119 0 0 303 c0 166 -5 343 -10
392 -17 148 -68 225 -182 274 -137 60 -329 16 -430 -98 -37 -43 -40 -44 -50
-26 -23 43 -106 112 -154 129 -62 21 -136 27 -195 16z"/>
<path d="M11290 1369 c-151 -29 -292 -160 -340 -315 -97 -316 71 -630 365
-685 107 -20 234 11 320 77 25 19 47 34 50 34 3 0 5 -22 5 -50 l0 -50 120 0
120 0 0 490 0 490 -120 0 -120 0 0 -55 0 -55 -47 36 c-102 78 -227 108 -353
83z m258 -235 c89 -44 140 -124 149 -233 15 -182 -100 -321 -266 -321 -79 0
-132 22 -186 75 -102 103 -112 288 -22 406 73 96 215 128 325 73z"/>
<path d="M12940 1369 c-151 -29 -292 -160 -340 -315 -97 -316 70 -630 365
-685 107 -20 234 11 320 77 25 19 47 34 50 34 3 0 5 -22 5 -50 l0 -50 120 0
120 0 0 490 0 490 -120 0 -120 0 0 -55 0 -55 -47 36 c-102 78 -227 108 -353
83z m258 -235 c89 -44 140 -124 149 -233 11 -130 -44 -240 -147 -294 -50 -26
-62 -28 -130 -25 -85 5 -123 21 -176 75 -101 101 -111 287 -21 404 73 96 215
128 325 73z"/>
<path d="M14293 1370 c-63 -13 -131 -46 -180 -86 l-43 -35 0 55 0 56 -125 0
-125 0 0 -490 0 -490 124 0 125 0 3 308 3 307 30 54 c39 70 89 104 163 109 70
5 114 -21 152 -88 l25 -45 3 -322 3 -323 120 0 119 0 0 243 c1 267 10 368 39
424 40 79 107 117 194 111 53 -4 63 -8 93 -40 52 -58 56 -84 61 -425 l5 -313
119 0 119 0 0 308 c0 348 -9 453 -46 529 -94 195 -410 215 -575 35 -37 -40
-43 -43 -52 -27 -23 42 -83 96 -130 119 -59 29 -158 40 -224 26z"/>
<path d="M15630 623 c-46 -24 -80 -76 -80 -123 0 -78 78 -146 154 -135 126 19
166 180 61 249 -39 26 -95 29 -135 9z"/>
</g>
</svg>
